<?xml version="1.0" standalone="no"?>
<!DOCTYPE svg PUBLIC "-//W3C//DTD SVG 20010904//EN"
 "http://www.w3.org/TR/2001/REC-SVG-20010904/DTD/svg10.dtd">
<svg version="1.0" xmlns="http://www.w3.org/2000/svg"
 width="700.000000pt" height="700.000000pt" viewBox="0 0 700.000000 700.000000"
 preserveAspectRatio="xMidYMid meet">
<metadata>
Created by potrace 1.11, written by Peter Selinger 2001-2013
</metadata>
<g transform="translate(0.000000,700.000000) scale(0.100000,-0.100000)"
fill="#000000" stroke="none">
<path d="M3300 6777 c-3 -3 -41 -7 -85 -10 -413 -28 -884 -169 -1279 -383
-116 -63 -364 -223 -435 -281 -194 -158 -305 -262 -437 -408 -429 -474 -727
-1102 -809 -1710 -3 -22 -7 -53 -10 -70 -27 -181 -28 -614 -1 -825 13 -100 20
-138 41 -240 89 -434 252 -824 497 -1188 28 -42 54 -79 58 -82 4 -3 11 -12 16
-21 46 -82 333 -398 465 -513 231 -200 475 -365 716 -481 65 -31 126 -61 135
-66 120 -62 520 -189 678 -215 14 -3 48 -9 75 -14 173 -33 302 -43 545 -44
261 -1 340 4 515 30 142 21 147 22 280 54 799 190 1493 673 1957 1360 46 69
88 132 91 140 4 8 23 42 42 75 175 300 313 683 376 1045 16 95 16 95 31 215
20 167 15 699 -7 767 -2 7 -6 36 -9 63 -3 28 -10 75 -16 105 -6 30 -13 67 -15
83 -12 63 -77 299 -108 392 -68 199 -175 435 -259 574 -21 34 -38 65 -38 67 0
6 -188 282 -200 294 -3 3 -25 29 -48 59 -316 403 -785 760 -1268 966 -275 118
-623 212 -884 240 -36 4 -78 9 -95 11 -40 7 -509 16 -515 11z m390 -441 c58
-4 116 -8 130 -11 21 -3 96 -14 211 -31 112 -15 442 -114 559 -166 290 -130
490 -250 704 -423 94 -75 271 -246 341 -328 22 -26 50 -58 61 -72 59 -65 205
-273 252 -357 116 -207 185 -359 247 -544 44 -129 87 -296 100 -384 4 -24 8
-47 10 -50 1 -3 6 -30 9 -61 4 -31 8 -65 10 -76 22 -111 22 -547 1 -663 -3
-14 -7 -45 -10 -70 -45 -381 -219 -834 -459 -1190 -154 -229 -387 -482 -582
-632 -16 -12 -31 -25 -34 -28 -10 -12 -148 -108 -230 -160 -115 -73 -343 -188
-465 -234 -55 -20 -110 -41 -122 -46 -61 -25 -290 -84 -403 -105 -14 -3 -36
-7 -50 -9 -49 -10 -177 -25 -258 -32 -126 -10 -411 -4 -527 11 -22 2 -62 7
-90 10 -67 8 -278 51 -335 69 -25 8 -79 24 -120 36 -493 147 -994 487 -1341
912 -91 111 -229 309 -229 327 0 5 -3 11 -7 13 -35 15 -216 411 -272 593 -12
39 -26 84 -31 100 -17 54 -59 262 -74 362 -20 138 -28 256 -27 423 1 153 4
198 27 390 20 165 95 449 166 630 17 41 61 138 99 215 364 743 1037 1291 1839
1498 52 14 111 28 130 31 19 3 46 8 60 11 86 18 235 36 342 41 67 4 124 7 125
8 3 3 117 -1 243 -8z"/>
<path d="M3336 4357 c-235 -47 -433 -179 -561 -372 -81 -122 -117 -217 -139
-365 -67 -460 242 -888 706 -980 66 -13 222 -16 288 -6 489 78 816 538 729
1026 -85 472 -554 792 -1023 697z"/>
</g>
</svg>
